<?xml version="1.0" standalone="no"?>
<!DOCTYPE svg PUBLIC "-//W3C//DTD SVG 20010904//EN"
 "http://www.w3.org/TR/2001/REC-SVG-20010904/DTD/svg10.dtd">
<svg version="1.0" xmlns="http://www.w3.org/2000/svg"
 width="325.000000pt" height="179.000000pt" viewBox="0 0 325.000000 179.000000"
 preserveAspectRatio="xMidYMid meet">

<g transform="translate(0.000000,179.000000) scale(0.100000,-0.100000)"
fill="#000000" stroke="none">
<path d="M1505 1670 c-301 -33 -555 -206 -675 -461 -38 -82 -70 -207 -70 -276
l0 -53 94 0 95 0 6 58 c29 249 196 447 439 521 232 71 499 7 664 -158 103
-103 172 -253 172 -374 0 -25 3 -48 8 -50 4 -3 48 -7 97 -8 l90 -3 3 32 c10
98 -42 274 -114 389 -163 262 -492 417 -809 383z m24 -62 l9 -33 2 35 2 35 9
-40 c4 -22 8 -49 8 -60 0 -20 0 -20 -14 -1 -15 20 -15 20 -16 0 -2 -25 -16 31
-18 69 -1 36 6 34 18 -5z m67 19 c11 4 14 -5 14 -44 0 -42 -3 -49 -20 -49 -18
0 -20 7 -19 56 0 30 3 50 5 43 3 -7 12 -9 20 -6z m68 4 c3 -5 3 -30 0 -55 -5
-36 -11 -46 -25 -46 -15 0 -19 8 -19 39 0 22 3 46 6 55 7 17 29 21 38 7z
m-169 -12 c4 -6 4 -13 0 -17 -3 -3 -10 0 -15 8 -8 12 -10 11 -10 -5 0 -40 11
-64 27 -58 11 4 14 2 11 -8 -3 -8 -12 -15 -20 -17 -12 -2 -19 10 -26 45 -6 26
-8 51 -6 55 7 12 32 10 39 -3z m200 -44 c0 -40 -4 -55 -14 -55 -10 0 -12 9 -7
38 3 20 6 45 6 55 0 9 3 17 8 17 4 0 7 -25 7 -55z m-272 25 c-3 -11 0 -27 7
-35 7 -9 10 -18 7 -22 -4 -3 -2 -12 4 -20 9 -10 8 -13 -4 -13 -9 0 -19 17 -26
44 -14 58 -14 66 3 66 9 0 12 -7 9 -20z m351 11 c10 -15 -19 -96 -34 -96 -11
0 -14 11 -13 40 2 22 5 46 8 53 5 14 31 16 39 3z m-395 -13 c-2 -7 3 -31 9
-52 6 -22 9 -42 7 -44 -6 -6 -25 44 -25 64 0 8 -7 17 -15 20 -8 4 -12 10 -9
15 8 14 35 11 33 -3z m461 -4 c0 -13 -3 -14 -14 -5 -12 10 -16 5 -26 -24 -6
-19 -9 -41 -7 -48 3 -7 6 -5 6 6 1 9 6 17 12 17 6 0 9 -8 7 -17 -2 -10 -12
-18 -23 -18 -16 0 -19 6 -17 28 5 49 20 77 42 77 12 0 20 -7 20 -16z m-546
-28 c-3 -14 0 -29 10 -39 9 -8 16 -26 15 -39 0 -17 -7 -10 -27 30 -23 45 -24
54 -12 62 21 13 21 13 14 -14z m571 -8 l-6 -33 16 28 c9 16 19 27 22 24 6 -7
-22 -61 -41 -76 -14 -12 -16 -10 -16 12 0 28 16 77 26 77 3 0 3 -15 -1 -32z
m-595 -30 c25 -41 26 -71 3 -66 -22 4 -57 64 -49 83 9 24 25 18 46 -17z m700
13 c0 -10 -7 -22 -16 -25 -9 -4 -14 -13 -10 -21 3 -8 2 -24 -2 -35 -7 -19 -9
-19 -29 -5 l-22 16 21 44 c23 47 58 63 58 26z m-813 -48 c-2 -22 3 -29 19 -31
16 -2 20 -8 17 -23 -4 -15 -2 -18 12 -12 13 4 16 3 11 -5 -13 -21 -31 -13 -64
30 -30 39 -31 44 -15 55 22 17 22 17 20 -14z m897 11 c9 -3 16 -14 15 -23 0
-10 -2 -11 -6 -3 -5 13 -33 17 -33 4 0 -4 5 -13 12 -20 10 -10 7 -18 -14 -38
-27 -27 -48 -25 -48 4 0 15 2 15 10 2 8 -13 11 -13 26 2 14 14 15 20 4 32 -10
13 -10 19 0 31 14 17 13 17 34 9z m-944 -36 c0 -7 12 -24 27 -40 14 -15 25
-30 22 -32 -8 -8 -80 65 -74 74 9 14 25 12 25 -2z m1006 -9 c3 -6 1 -16 -5
-22 -8 -8 -11 -7 -11 3 0 9 -9 5 -25 -10 -14 -13 -24 -30 -23 -38 2 -8 -3 -17
-9 -19 -25 -9 -13 31 19 64 34 35 43 39 54 22z m-986 -95 c0 -29 -24 -24 -61
12 -21 21 -36 40 -34 43 3 2 21 -11 40 -29 19 -18 37 -31 40 -29 2 3 -11 21
-30 39 -19 19 -35 38 -35 44 0 6 18 -8 40 -29 22 -21 40 -45 40 -51z m975 26
c-21 -22 -41 -37 -44 -34 -6 6 64 74 76 74 4 0 -10 -18 -32 -40z m76 13 c12
-15 12 -16 -3 -10 -12 4 -24 -2 -37 -18 -10 -14 -24 -25 -31 -25 -7 0 -10 -7
-6 -15 6 -18 -10 -20 -20 -3 -5 7 9 27 36 50 23 21 44 38 45 38 1 0 9 -8 16
-17z m-1130 -43 c50 -46 44 -54 -10 -13 -20 16 -39 27 -43 25 -10 -3 -10 12
-1 21 9 9 6 11 54 -33z m1151 -2 c-17 -17 -15 -33 3 -18 9 7 18 11 21 8 6 -7
-76 -68 -90 -68 -6 0 -5 5 2 12 17 17 15 33 -3 18 -9 -7 -18 -11 -21 -8 -6 7
76 68 90 68 6 0 5 -5 -2 -12z m-1174 -29 c24 -17 41 -34 38 -36 -3 -3 -23 9
-44 26 -42 33 -52 37 -52 22 0 -5 19 -23 42 -40 23 -17 36 -31 28 -31 -7 0
-21 6 -29 14 -9 8 -29 21 -44 29 -26 13 -27 16 -12 31 22 21 24 21 73 -15z
m1232 -29 c0 -11 -4 -20 -10 -20 -5 0 -10 7 -10 15 0 12 -7 11 -35 -7 -27 -18
-31 -24 -18 -29 12 -4 13 -8 4 -13 -14 -9 -41 -1 -41 12 0 13 72 62 92 62 11
0 18 -8 18 -20z m-1318 -8 c-24 -8 -11 -21 16 -17 34 6 67 -17 58 -41 -6 -15
-21 -12 -21 4 -1 21 -17 31 -34 22 -13 -6 -24 -5 -37 4 -15 12 -16 16 -5 30 7
9 18 13 24 9 8 -5 7 -8 -1 -11z m1356 -42 c4 -12 2 -12 -8 -3 -16 15 -50 -1
-50 -23 0 -11 -6 -13 -22 -9 -17 6 -20 4 -15 -10 5 -11 3 -15 -5 -13 -26 9
-17 27 24 52 46 28 69 30 76 6z m-1345 -17 c36 -18 46 -28 34 -31 -9 -2 -15
-8 -12 -13 9 -13 3 -12 -51 13 -41 19 -45 23 -26 26 22 3 23 4 5 17 -29 23 -6
17 50 -12z m5 -60 c6 -3 12 -9 12 -13 0 -5 -22 1 -50 13 -27 11 -50 25 -50 29
0 5 17 1 38 -8 20 -9 43 -18 50 -21z m1380 -6 c5 -24 -32 -38 -80 -30 l-43 6
50 23 c55 25 68 25 73 1z m-1427 -39 c22 -6 39 -15 39 -19 0 -5 -7 -6 -15 -3
-18 7 -20 -12 -2 -20 18 -9 -38 3 -68 14 -28 11 -34 40 -9 40 9 0 34 -5 55
-12z m1439 -2 c0 -7 -101 -38 -106 -33 -3 3 14 12 38 20 44 16 68 20 68 13z
m10 -24 c0 -5 -19 -15 -42 -21 -24 -7 -49 -18 -55 -23 -9 -8 -13 -6 -13 4 0
10 20 21 53 30 28 9 53 16 55 17 1 0 2 -3 2 -7z m-1442 -45 c12 1 22 -4 22 -9
0 -13 -84 -3 -108 12 -13 8 -7 9 23 4 22 -4 50 -7 63 -7z m1460 -29 c2 -13 -6
-18 -35 -23 -21 -4 -46 -9 -55 -12 -10 -2 -18 0 -18 6 0 6 8 11 18 12 11 1 8
4 -8 8 -23 7 -21 9 20 18 57 14 74 12 78 -9z m-1493 -3 c22 -8 33 -14 25 -15
-13 0 -13 -1 0 -11 11 -7 -1 -8 -40 -3 -65 8 -71 10 -63 29 7 19 27 19 78 0z
m-10 -44 l40 -9 -35 0 c-19 0 -46 4 -60 8 -20 6 -21 8 -5 8 11 1 38 -3 60 -7z
m1495 -6 l-25 -14 25 -2 c18 -1 14 -4 -15 -10 -65 -13 -80 -12 -65 6 10 12 9
15 -6 16 -29 2 35 17 76 17 l35 1 -25 -14z m-1452 -37 c3 -15 -4 -18 -50 -18
-58 0 -85 11 -73 29 4 8 28 11 63 9 45 -2 58 -7 60 -20z m1455 -15 c-18 -2
-48 -2 -65 0 -18 2 -4 4 32 4 36 0 50 -2 33 -4z"/>
<path d="M1643 1585 c0 -22 2 -30 4 -17 2 12 2 30 0 40 -3 9 -5 -1 -4 -23z"/>
<path d="M1745 1580 c-4 -17 -5 -34 -2 -36 3 -3 8 9 12 26 4 17 5 34 2 36 -3
3 -8 -9 -12 -26z"/>
<path d="M1245 1511 c22 -43 38 -49 18 -7 -9 20 -20 36 -25 36 -5 0 -2 -13 7
-29z"/>
<path d="M1910 1480 c0 -5 5 -10 10 -10 6 0 10 5 10 10 0 6 -4 10 -10 10 -5 0
-10 -4 -10 -10z"/>
<path d="M2293 1163 c-21 -8 -15 -22 7 -16 11 3 20 9 20 14 0 10 -8 10 -27 2z"/>
<path d="M864 1115 c22 -17 36 -19 36 -6 0 10 -24 21 -43 21 -7 0 -3 -7 7 -15z"/>
<path d="M2338 1033 c-10 -3 -18 -9 -18 -14 0 -10 7 -11 34 0 23 9 9 19 -16
14z"/>
<path d="M830 1019 c0 -5 9 -9 20 -9 11 0 20 2 20 4 0 2 -9 6 -20 9 -11 3 -20
1 -20 -4z"/>
<path d="M870 940 c0 -5 7 -10 16 -10 8 0 12 5 9 10 -3 6 -10 10 -16 10 -5 0
-9 -4 -9 -10z"/>
<path d="M1537 1433 c-4 -3 -7 -14 -7 -23 0 -12 -13 -21 -42 -28 -42 -11 -50
-8 -61 23 -4 10 -78 -11 -105 -31 -14 -10 -14 -14 -3 -28 8 -9 12 -18 10 -20
-2 -1 -20 -12 -40 -24 -33 -20 -36 -20 -52 -4 -16 15 -20 14 -60 -26 -39 -40
-41 -44 -24 -57 18 -13 17 -15 -5 -49 -19 -30 -27 -35 -49 -31 -22 5 -28 1
-44 -34 -19 -43 -15 -71 10 -71 12 0 14 -7 9 -27 -13 -60 -15 -64 -37 -61 -20
3 -22 -1 -22 -52 0 -47 3 -55 20 -58 27 -5 32 -11 39 -54 5 -30 4 -38 -8 -38
-26 0 -28 -18 -7 -65 18 -40 23 -45 44 -40 19 5 29 -1 51 -29 23 -30 25 -37
12 -42 -24 -9 -19 -27 17 -62 36 -35 49 -39 66 -18 10 12 18 10 51 -11 33 -22
38 -29 29 -45 -9 -16 -4 -21 33 -38 55 -25 65 -25 73 0 4 13 13 19 23 16 9 -2
32 -8 50 -11 21 -4 32 -12 28 -20 -8 -21 16 -35 59 -35 44 0 67 14 58 36 -3 8
-1 14 3 14 5 0 26 5 48 9 34 8 39 7 43 -10 7 -24 27 -24 81 1 37 17 42 22 33
39 -9 16 -5 23 28 44 35 23 40 24 54 10 15 -15 19 -14 52 11 44 34 54 55 32
68 -15 8 -14 13 9 48 23 34 29 38 46 29 23 -12 20 -15 47 38 26 53 26 59 0 66
-17 5 -20 11 -15 29 3 13 6 33 6 45 0 16 7 22 28 25 21 2 28 9 30 32 6 50 -6
76 -33 76 -15 0 -25 6 -25 14 0 7 -3 28 -6 45 -5 24 -3 31 9 31 26 0 28 16 6
65 -18 42 -23 46 -47 41 -22 -5 -31 0 -49 26 -21 30 -21 33 -6 50 18 20 10 34
-39 70 -27 19 -31 19 -45 5 -14 -14 -19 -13 -54 10 -33 21 -37 28 -28 44 9 17
4 22 -33 39 -54 24 -73 25 -84 2 -8 -16 -15 -17 -51 -10 -37 8 -43 13 -43 34
0 22 -3 24 -53 24 -30 0 -57 -3 -60 -7z m226 -113 c140 -53 258 -170 297 -296
84 -274 -98 -542 -398 -586 -150 -22 -299 24 -411 128 -106 98 -163 250 -142
383 29 184 175 339 364 387 75 19 217 11 290 -16z"/>
<path d="M1478 1315 c-32 -8 -76 -24 -97 -35 l-40 -20 120 -357 c66 -197 122
-365 126 -373 3 -8 61 152 129 355 139 417 136 378 35 416 -72 27 -198 33
-273 14z m167 -75 c15 13 17 10 44 -57 15 -39 17 -53 8 -62 -9 -10 -5 -18 18
-37 l30 -24 -25 -20 c-14 -11 -35 -23 -47 -26 -12 -3 -31 -22 -43 -41 -18 -30
-20 -51 -20 -179 0 -115 -3 -144 -14 -144 -19 0 -26 45 -26 179 -1 102 -3 120
-23 151 -12 20 -29 34 -37 33 -8 -2 -30 9 -49 25 l-34 28 38 23 c30 17 35 25
25 31 -12 8 -11 17 4 62 22 62 34 78 45 60 5 -8 14 -3 30 19 l23 31 20 -31
c15 -24 23 -29 33 -21z"/>
<path d="M1950 1086 c-5 -15 -10 -31 -10 -35 0 -4 -13 -22 -30 -41 -17 -21
-29 -47 -30 -64 0 -26 2 -28 27 -21 35 8 42 21 36 59 -2 17 3 51 11 75 17 47
13 72 -4 27z"/>
<path d="M1323 1024 c-8 -22 18 -37 36 -20 7 8 10 19 7 25 -10 16 -36 13 -43
-5z"/>
<path d="M1367 906 c-7 -17 18 -40 33 -31 5 3 10 15 10 26 0 23 -35 27 -43 5z"/>
<path d="M1251 896 c-8 -10 -7 -17 3 -26 17 -13 36 -6 36 15 0 19 -27 26 -39
11z"/>
<path d="M1867 903 c-3 -5 -8 -22 -11 -38 -6 -26 -4 -31 14 -32 25 -2 39 25
19 38 -14 8 -12 10 13 13 6 0 13 7 16 14 4 13 -43 18 -51 5z"/>
<path d="M1165 820 c-4 -6 -1 -17 5 -25 9 -11 17 -12 32 -4 15 8 17 13 7 25
-14 16 -35 18 -44 4z"/>
<path d="M1331 806 c-9 -10 -8 -16 4 -26 21 -17 51 6 34 26 -6 8 -15 14 -19
14 -4 0 -13 -6 -19 -14z"/>
<path d="M1829 799 c-7 -14 -7 -25 -1 -31 15 -15 52 9 52 32 0 27 -36 26 -51
-1z"/>
<path d="M1833 752 c-13 -2 -23 -9 -23 -15 0 -7 -9 -18 -19 -24 -27 -17 -47
-81 -31 -96 10 -9 14 -9 17 1 6 17 23 15 23 -3 0 -8 6 -15 14 -15 16 0 39 58
35 87 -1 10 1 26 5 35 11 25 4 34 -21 30z m-3 -63 c0 -5 -4 -9 -10 -9 -5 0
-10 7 -10 16 0 8 5 12 10 9 6 -3 10 -10 10 -16z"/>
<path d="M1280 735 c-10 -11 -10 -19 -2 -27 15 -15 44 -2 40 19 -4 23 -22 27
-38 8z"/>
<path d="M1224 695 c-15 -10 -16 -16 -7 -26 14 -15 43 -5 43 15 0 22 -15 27
-36 11z"/>
<path d="M1730 589 c-7 -11 -28 -38 -47 -60 -38 -42 -38 -44 1 -29 28 10 89
87 80 101 -9 15 -23 10 -34 -12z"/>
<path d="M1324 585 c-7 -18 3 -35 21 -35 15 0 28 27 19 41 -8 14 -34 11 -40
-6z"/>
<path d="M1766 555 c-25 -33 -26 -35 -7 -35 18 0 61 43 61 61 0 21 -30 6 -54
-26z"/>
<path d="M1190 315 c-25 -35 -45 -70 -45 -77 0 -21 123 -76 231 -104 90 -23
112 -25 244 -21 91 3 167 11 205 22 72 20 225 90 225 103 0 14 -99 142 -111
142 -5 0 -20 -6 -32 -14 -47 -31 -181 -68 -267 -73 -109 -7 -200 8 -311 53
-48 19 -88 34 -90 34 -2 -1 -24 -30 -49 -65z m121 -29 c30 -14 49 -25 44 -25
-6 -1 -17 -17 -24 -37 -7 -19 -15 -33 -18 -30 -3 3 0 19 7 36 7 17 10 33 6 37
-3 3 -11 -8 -17 -25 -13 -37 -28 -43 -22 -8 3 13 0 27 -6 30 -6 4 -11 0 -11
-9 0 -9 -5 -22 -12 -29 -10 -10 -15 -10 -30 3 -18 15 -25 41 -11 41 3 0 15 -8
26 -17 19 -17 19 -17 12 6 -7 22 -5 23 27 17 l33 -7 -35 20 c-48 28 -33 26 31
-3z m641 -16 c9 -22 12 -40 7 -40 -5 0 -9 5 -9 10 0 16 -30 12 -36 -5 -8 -20
-24 -9 -24 16 0 12 -7 19 -19 19 -29 0 -35 -17 -11 -30 22 -12 26 -35 8 -46
-8 -5 -9 -2 -5 10 6 15 3 17 -26 11 -41 -9 -43 -11 -26 -31 12 -15 12 -17 -1
-12 -24 8 -24 45 -1 51 36 9 25 30 -11 23 -40 -8 -39 -7 -29 -42 8 -29 8 -30
-30 -31 -33 -2 -39 1 -39 18 0 12 7 19 19 19 11 0 23 5 27 11 5 8 -3 10 -25 7
-57 -8 -32 8 33 21 35 7 85 23 112 36 27 13 54 24 59 24 6 0 18 -17 27 -39z
m-548 -16 c12 -5 13 -11 4 -32 -14 -32 -34 -56 -25 -29 5 13 1 17 -20 17 -14
0 -23 3 -19 8 4 4 17 7 29 7 26 0 34 22 10 28 -10 3 -13 5 -6 6 6 0 18 -2 27
-5z m195 -24 l57 0 -4 -40 c-4 -38 -5 -39 -19 -23 -10 13 -16 15 -19 6 -10
-23 -25 -13 -22 14 2 20 -2 28 -15 31 -15 3 -18 0 -12 -17 4 -13 2 -21 -5 -21
-7 0 -9 -8 -4 -22 7 -23 6 -23 -15 -4 -25 23 -28 48 -5 39 12 -4 15 -2 12 8
-2 8 -14 15 -26 17 -19 3 -22 -1 -22 -27 0 -34 -6 -37 -33 -17 -10 8 -16 24
-15 41 2 26 4 27 47 21 24 -3 69 -6 100 -6z"/>
<path d="M1900 276 c0 -9 7 -16 16 -16 9 0 14 5 12 12 -6 18 -28 21 -28 4z"/>
<path d="M1710 188 c0 -10 9 -9 35 2 17 8 16 8 -7 7 -16 -1 -28 -5 -28 -9z"/>
<path d="M1470 210 c0 -11 5 -20 10 -20 6 0 10 9 10 20 0 11 -4 20 -10 20 -5
0 -10 -9 -10 -20z"/>
<path d="M1610 205 c0 -8 5 -15 10 -15 6 0 10 7 10 15 0 8 -4 15 -10 15 -5 0
-10 -7 -10 -15z"/>
</g>
</svg>
