<?xml version="1.0" standalone="no"?>
<!DOCTYPE svg PUBLIC "-//W3C//DTD SVG 20010904//EN"
 "http://www.w3.org/TR/2001/REC-SVG-20010904/DTD/svg10.dtd">
<svg version="1.0" xmlns="http://www.w3.org/2000/svg"
 width="325.000000pt" height="179.000000pt" viewBox="0 0 325.000000 179.000000"
 preserveAspectRatio="xMidYMid meet">
<metadata>
Created by potrace 1.16, written by Peter Selinger 2001-2019
</metadata>
<g transform="translate(0.000000,179.000000) scale(0.100000,-0.100000)"
fill="#000000" stroke="none">
<path d="M1505 1670 c-301 -33 -555 -206 -675 -461 -38 -82 -70 -207 -70 -276
l0 -53 94 0 95 0 6 58 c29 249 196 447 439 521 232 71 499 7 664 -158 103
-103 172 -253 172 -374 0 -25 3 -48 8 -50 4 -3 48 -7 97 -8 l90 -3 3 32 c10
98 -42 274 -114 389 -163 262 -492 417 -809 383z"/>
<path d="M1537 1433 c-4 -3 -7 -14 -7 -23 0 -12 -13 -21 -42 -28 -42 -11 -50
-8 -61 23 -4 10 -78 -11 -105 -31 -14 -10 -14 -14 -3 -28 8 -9 12 -18 10 -20
-2 -1 -20 -12 -40 -24 -33 -20 -36 -20 -52 -4 -16 15 -20 14 -60 -26 -39 -40
-41 -44 -24 -57 18 -13 17 -15 -5 -49 -19 -30 -27 -35 -49 -31 -22 5 -28 1
-44 -34 -19 -43 -15 -71 10 -71 12 0 14 -7 9 -27 -13 -60 -15 -64 -37 -61 -20
3 -22 -1 -22 -52 0 -47 3 -55 20 -58 27 -5 32 -11 39 -54 5 -30 4 -38 -8 -38
-26 0 -28 -18 -7 -65 18 -40 23 -45 44 -40 19 5 29 -1 51 -29 23 -30 25 -37
12 -42 -24 -9 -19 -27 17 -62 36 -35 49 -39 66 -18 10 12 18 10 51 -11 33 -22
38 -29 29 -45 -9 -16 -4 -21 33 -38 55 -25 65 -25 73 0 4 13 13 19 23 16 9 -2
32 -8 50 -11 21 -4 32 -12 28 -20 -8 -21 16 -35 59 -35 44 0 67 14 58 36 -3 8
-1 14 3 14 5 0 26 5 48 9 34 8 39 7 43 -10 7 -24 27 -24 81 1 37 17 42 22 33
39 -9 16 -5 23 28 44 35 23 40 24 54 10 15 -15 19 -14 52 11 44 34 54 55 32
68 -15 8 -14 13 9 48 23 34 29 38 46 29 23 -12 20 -15 47 38 26 53 26 59 0 66
-17 5 -20 11 -15 29 3 13 6 33 6 45 0 16 7 22 28 25 21 2 28 9 30 32 6 50 -6
76 -33 76 -15 0 -25 6 -25 14 0 7 -3 28 -6 45 -5 24 -3 31 9 31 26 0 28 16 6
65 -18 42 -23 46 -47 41 -22 -5 -31 0 -49 26 -21 30 -21 33 -6 50 18 20 10 34
-39 70 -27 19 -31 19 -45 5 -14 -14 -19 -13 -54 10 -33 21 -37 28 -28 44 9 17
4 22 -33 39 -54 24 -73 25 -84 2 -8 -16 -15 -17 -51 -10 -37 8 -43 13 -43 34
0 22 -3 24 -53 24 -30 0 -57 -3 -60 -7z m226 -113 c140 -53 258 -170 297 -296
84 -274 -98 -542 -398 -586 -150 -22 -299 24 -411 128 -106 98 -163 250 -142
383 29 184 175 339 364 387 75 19 217 11 290 -16z"/>
<path d="M1478 1315 c-32 -8 -76 -24 -97 -35 l-40 -20 120 -357 c66 -197 122
-365 126 -373 3 -8 61 152 129 355 139 417 136 378 35 416 -72 27 -198 33
-273 14z m167 -75 c15 13 17 10 44 -57 15 -39 17 -53 8 -62 -9 -10 -5 -18 18
-37 l30 -24 -25 -20 c-14 -11 -35 -23 -47 -26 -12 -3 -31 -22 -43 -41 -18 -30
-20 -51 -20 -179 0 -115 -3 -144 -14 -144 -19 0 -26 45 -26 179 -1 102 -3 120
-23 151 -12 20 -29 34 -37 33 -8 -2 -30 9 -49 25 l-34 28 38 23 c30 17 35 25
25 31 -12 8 -11 17 4 62 22 62 34 78 45 60 5 -8 14 -3 30 19 l23 31 20 -31
c15 -24 23 -29 33 -21z"/>
<path d="M1190 315 c-25 -35 -45 -70 -45 -77 0 -21 123 -76 231 -104 90 -23
112 -25 244 -21 91 3 167 11 205 22 72 20 225 90 225 103 0 14 -99 142 -111
142 -5 0 -20 -6 -32 -14 -47 -31 -181 -68 -267 -73 -109 -7 -200 8 -311 53
-48 19 -88 34 -90 34 -2 -1 -24 -30 -49 -65z"/>
</g>
</svg>
